<svg width="21" height="20" viewBox="0 0 21 20" fill="none" xmlns="http://www.w3.org/2000/svg">
<path d="M9.37061 16H11.3706V14H9.37061V16ZM10.3706 0C4.85061 0 0.370605 4.48 0.370605 10C0.370605 15.52 4.85061 20 10.3706 20C15.8906 20 20.3706 15.52 20.3706 10C20.3706 4.48 15.8906 0 10.3706 0ZM10.3706 18C5.96061 18 2.37061 14.41 2.37061 10C2.37061 5.59 5.96061 2 10.3706 2C14.7806 2 18.3706 5.59 18.3706 10C18.3706 14.41 14.7806 18 10.3706 18ZM10.3706 4C8.16061 4 6.37061 5.79 6.37061 8H8.37061C8.37061 6.9 9.27061 6 10.3706 6C11.4706 6 12.3706 6.9 12.3706 8C12.3706 10 9.37061 9.75 9.37061 13H11.3706C11.3706 10.75 14.3706 10.5 14.3706 8C14.3706 5.79 12.5806 4 10.3706 4Z" fill="#94A196"/>
</svg>
