<svg width="21" height="19" viewBox="0 0 21 19" fill="none" xmlns="http://www.w3.org/2000/svg">
<path d="M14.8706 0C13.1306 0 11.4606 0.81 10.3706 2.09C9.28061 0.81 7.61061 0 5.87061 0C2.79061 0 0.370605 2.42 0.370605 5.5C0.370605 9.28 3.77061 12.36 8.92061 17.04L10.3706 18.35L11.8206 17.03C16.9706 12.36 20.3706 9.28 20.3706 5.5C20.3706 2.42 17.9506 0 14.8706 0ZM10.4706 15.55L10.3706 15.65L10.2706 15.55C5.5106 11.24 2.37061 8.39 2.37061 5.5C2.37061 3.5 3.87061 2 5.87061 2C7.41061 2 8.91061 2.99 9.44061 4.36H11.3106C11.8306 2.99 13.3306 2 14.8706 2C16.8706 2 18.3706 3.5 18.3706 5.5C18.3706 8.39 15.2306 11.24 10.4706 15.55Z" fill="#656E66"/>
</svg>
