<svg width="24" height="24" viewBox="0 0 24 24" fill="none" xmlns="http://www.w3.org/2000/svg">
<path d="M12.8158 15.6524H10.9116V10.9998C10.9116 10.3682 10.3474 9.86304 9.64223 9.86304C8.93693 9.86304 8.37285 10.3683 8.37285 10.9998V15.6524H6.46869C5.71634 15.6524 5.24621 16.3893 5.64581 16.9788L8.79592 21.5893C9.17209 22.1366 10.0653 22.1366 10.4415 21.5893L13.5916 16.9788C14.0383 16.3891 13.5681 15.6524 12.8158 15.6524H12.8158Z" fill="#656E66"/>
<path d="M20.2559 7.02101L17.0823 2.4105C16.7061 1.86317 15.8129 1.86317 15.4367 2.4105L12.2864 7.02101C11.8868 7.58947 12.357 8.34736 13.1093 8.34736H15.0135V13C15.0135 13.6316 15.5777 14.1367 16.2829 14.1367C16.9882 14.1367 17.5522 13.6314 17.5522 13L17.5524 8.32631H19.4566C20.1853 8.32631 20.632 7.58954 20.2558 7.02109L20.2559 7.02101Z" fill="#656E66"/>
</svg>
